<svg viewBox="0 0 30 30" version="1" xmlns="http://www.w3.org/2000/svg"><title>2 Atom/Icon/Linkedin/a</title><g fill="#0A47ED" fill-rule="evenodd"><path d="M25.568 25.568h-4.51v-7.825c0-2.31-.981-3.021-2.248-3.021-1.337 0-2.65 1.006-2.65 3.078v7.768h-4.51V11.24h4.337v1.985h.058c.437-.882 1.96-2.387 4.287-2.387 2.516 0 5.236 1.492 5.236 5.869v8.861zM6.685 9.245c-1.435 0-2.6-1.095-2.6-2.59 0-1.497 1.165-2.59 2.6-2.59 1.437 0 2.6 1.093 2.6 2.59 0 1.495-1.163 2.59-2.6 2.59zM4.43 25.557h4.51V11.228H4.43v14.329zM27.785 0H2.213A2.214 2.214 0 0 0 0 2.215v25.57C0 29.008.99 30 2.213 30h25.572A2.215 2.215 0 0 0 30 27.785V2.215A2.215 2.215 0 0 0 27.785 0z"/><path d="M0 0h3v4H0zM27 0h3v4h-3zM27 26h3v4h-3zM0 26h3v4H0z"/></g></svg>