<svg version="1" id="Layer_1" xmlns="http://www.w3.org/2000/svg" viewBox="0 0 216.6 136.5"><style>.st0{fill:none}.st1{fill:#00d1da}.st2{fill:#0a47ed}</style><title>Group</title><g transform="translate(-639 -39)"><g id="wunderman_thompson_commerce_logo" transform="translate(611.71 23)"><g transform="translate(.29)" id="Group"><path id="Path" class="st0" d="M27 16h216.6v136.5H27z"/><path class="st1" d="M71.5 39.1h-6.2v-6.3h-4.2v6.3h-6.3v4.2h6.3v6.2h4.2v-6.2h6.2z"/><path id="Shape" class="st2" d="M180 55.4c0-3.2-2.6-5.8-5.8-5.8h-6.3v19.1h2.1v-7.5h4.8l3.4 7.6h2.3l-3.8-8.1c1.9-1.1 3.3-3.1 3.3-5.3zm-5.9 3.6h-4.3v-7.4h4.3c2 0 3.7 1.6 3.7 3.7s-1.7 3.7-3.7 3.7zm-69.6 3.9c0 2.8-1.9 4-4.3 4-2.3 0-4.3-1.2-4.3-4V49.5h-2.1v13.3c0 3.7 2.6 6.1 6.4 6.1 3.7 0 6.4-2.3 6.4-6.1V49.5h-2.1v13.4zm-19.9 1.4l-2.8-14.7h-2.6l-2.8 14.7-2.6-14.7h-2.1l3.7 19.1h2.3l3-14.8 3 14.8H86l3.7-19.1h-2.1l-3 14.7zm72.6 12.8h-6.3v19.1h2.1v-7.5h4.3c3.2 0 5.8-2.6 5.8-5.8-.1-3.2-2.7-5.8-5.9-5.8zm0 9.5H153v-7.4h4.3c2 0 3.7 1.6 3.7 3.7s-1.8 3.7-3.8 3.7zM211 49.5l-6.1 19.1h2.3l1.4-4.4h7.2l1.4 4.4h2.3l-6.1-19.1H211zm-1.8 12.6l3-9.2 3 9.2h-6zm-16.5 14.7c-3.4 0-6.2 2.8-6.2 6.2v7.2c0 3.4 2.8 6.2 6.2 6.2 3.4 0 6.2-2.8 6.2-6.2V83c0-3.4-2.8-6.2-6.2-6.2zm4 13.5c0 2.3-1.8 4.1-4.1 4.1s-4.1-1.8-4.1-4.1V83c0-2.3 1.8-4.1 4.1-4.1s4.1 1.8 4.1 4.1v7.3zm-77.6-13.5c-3.4 0-6.2 2.8-6.2 6.2v7.2c0 3.4 2.8 6.2 6.2 6.2 3.4 0 6.2-2.8 6.2-6.2V83c0-3.4-2.8-6.2-6.2-6.2zm4.1 13.5c0 2.3-1.8 4.1-4.1 4.1s-4.1-1.8-4.1-4.1V83c0-2.3 1.8-4.1 4.1-4.1s4.1 1.8 4.1 4.1v7.3zm.2-26l-8.7-14.7h-2v19.1h2.1V53.9l8.7 14.7h2V49.5h-2.1v14.8zm112.4-14.8v14.7l-8.7-14.7h-2v19.1h2.1V53.9l8.7 14.7h2V49.5h-2.1zm-19.4 42.3l-8.7-14.7h-2v19.1h2.1V81.5l8.7 14.7h2V77.1h-2.1v14.7zm-72.3-29.3v-6.7c0-3.4-2.8-6.2-6.2-6.2h-6.3v19.1h6.3c3.4 0 6.2-2.8 6.2-6.2zm-10.4-10.8h4.3c2.3 0 4.1 1.8 4.1 4.1v6.7c0 2.3-1.8 4.1-4.1 4.1h-4.3V51.7zm28.5 14.8h-9.6v-6.4h8.5V58h-8.5v-6.3h9.6v-2.1h-11.7v19.1h11.7v-2.2zm30.5-7.5l-4.8-9.4h-2.2v19.1h2.1V53.9l4.2 8.4h1.4l4.2-8.4v14.7h2.1V49.5h-2.2l-4.8 9.5zM72.6 79.2h6.8v17h2.1v-17h6.8v-2.1H72.6v2.1zm31.9 6.4h-8.3v-8.5H94v19.1h2.1v-8.5h8.3v8.5h2.1V77.1h-2.1v8.5zm71 0l-3-1.2c-2.1-.8-2.3-1.8-2.3-2.6s.3-1.4.8-1.9c.7-.6 1.7-.9 3-.9s2.3.3 3 .9c.6.6 1 1.4 1 2.3v.3h2.1v-.3c0-3.3-2.5-5.4-6-5.4-3.6 0-5.9 2-5.9 4.9 0 2.6 1.8 3.9 4 4.8l2.7 1.1c2.6 1 3.4 1.7 3.4 3.4 0 1-.3 1.8-1 2.5-.8.6-1.9 1-3.2 1s-2.5-.3-3.3-1c-.6-.6-1-1.3-1-2.3v-.5h-2.1v.5c0 3.3 2.6 5.4 6.4 5.4s6.4-2.2 6.4-5.6-2.7-4.5-5-5.4zm-37.7.9l-4.8-9.4h-2.2v19.1h2.1V81.5l4.2 8.4h1.4l4.2-8.4v14.7h2.1V77.1h-2.3l-4.7 9.4z"/><path class="st1" d="M82.8 129.3H85v.6c0 1.7-.6 3.2-1.7 4.2-1.2 1-2.6 1.6-4.5 1.6s-3.4-.6-4.5-1.7c-1.2-1.1-1.7-2.6-1.7-4.5v-7.4c0-1.9.6-3.4 1.7-4.5 1.2-1.1 2.6-1.6 4.5-1.6 1.8 0 3.3.5 4.5 1.6 1.2 1 1.7 2.5 1.7 4.2v.5h-2.1v-.5c0-1.1-.4-2-1.1-2.7s-1.7-1-3-1c-1.2 0-2.3.4-3 1.2-.7.8-1.1 1.7-1.1 2.9v7.7c0 1.2.4 2.1 1.1 2.9.7.8 1.7 1.2 3 1.2 1.2 0 2.3-.3 3-1 .7-.7 1.1-1.6 1.1-2.7l-.1-1zm16-2.8v3.7c0 1.7-.5 3-1.5 4s-2.3 1.5-3.9 1.5-2.9-.5-3.9-1.5-1.5-2.3-1.5-4v-3.7c0-1.7.5-3 1.5-4s2.3-1.5 3.9-1.5 2.9.5 3.9 1.5 1.5 2.3 1.5 4zm-8.7-.1v4.1c0 1 .3 1.9.8 2.5.6.6 1.4 1 2.4 1s1.8-.3 2.4-1c.6-.6.8-1.5.8-2.5v-4.1c0-1-.3-1.9-.8-2.5-.6-.6-1.4-1-2.4-1s-1.8.3-2.4 1c-.5.6-.8 1.4-.8 2.5zm14 9.1H102v-14.2h1.6l.3 1.7c.9-1.3 2.2-2 3.8-2 2.1 0 3.5.8 4.3 2.6.8-1.7 2.2-2.6 4.1-2.6 1.5 0 2.7.5 3.6 1.4.8.9 1.3 2.2 1.3 3.8v9.3h-2.1v-9.3c0-1-.3-1.7-.8-2.3-.5-.6-1.3-.9-2.3-.9s-1.7.3-2.3 1c-.6.6-.9 1.4-.9 2.4v9.2h-2.1v-9.3c0-1-.3-1.7-.8-2.3-.5-.6-1.3-.9-2.3-.9s-1.7.3-2.3 1c-.6.6-.9 1.5-.9 2.5v8.9zm22.5 0h-2.1v-14.2h1.6l.3 1.7c.9-1.3 2.2-2 3.8-2 2.1 0 3.5.8 4.3 2.6.8-1.7 2.2-2.6 4.1-2.6 1.5 0 2.7.5 3.6 1.4.8.9 1.3 2.2 1.3 3.8v9.3h-2.1v-9.3c0-1-.3-1.7-.8-2.3-.5-.6-1.3-.9-2.3-.9s-1.7.3-2.3 1c-.6.6-.9 1.4-.9 2.4v9.2H133v-9.3c0-1-.3-1.7-.8-2.3-.5-.6-1.3-.9-2.3-.9s-1.7.3-2.3 1c-.6.6-.9 1.5-.9 2.5v8.9zm28.6-4.8h2v.2c0 1.5-.5 2.6-1.4 3.5-1 .8-2.3 1.3-3.8 1.3-1.6 0-2.9-.5-3.9-1.4-1-1-1.5-2.3-1.5-3.9v-3.9c0-1.7.5-3 1.5-4s2.3-1.5 3.9-1.5 2.8.5 3.8 1.5 1.4 2.3 1.4 4v2.1h-8.5v2c0 1 .3 1.7.9 2.4.6.6 1.4 1 2.5 1 1 0 1.9-.3 2.4-.8.6-.6.8-1.3.8-2.1l-.1-.4zm-6.6-4.4v.7h6.5v-.7c0-1-.3-1.9-.8-2.6-.6-.6-1.4-1-2.4-1s-1.8.3-2.5 1c-.4.7-.8 1.5-.8 2.6zm13.9 9.2h-2.1v-14.2h1.6l.3 1.8c.8-1.4 2.1-2.1 3.7-2.1.1 0 .4 0 .7.1v2c-.5-.1-.8-.1-.8-.1-1 0-1.9.3-2.5 1-.6.6-1 1.5-1 2.6l.1 8.9zm15-4.9h2.1v.3c0 1.6-.5 2.7-1.4 3.6-1 .9-2.3 1.3-3.9 1.3s-2.9-.5-3.9-1.5-1.5-2.3-1.5-4v-3.7c0-1.7.5-3 1.5-4s2.3-1.5 3.9-1.5 2.8.5 3.9 1.4c1 .9 1.5 2.1 1.5 3.6v.2h-2.1v-.3c0-.8-.3-1.5-.8-2.1-.6-.5-1.4-.8-2.4-.8s-1.8.3-2.4 1c-.6.6-.8 1.5-.8 2.5v4.1c0 1 .3 1.9.8 2.5.6.6 1.4 1 2.4 1s1.9-.3 2.4-.8c.6-.5.8-1.2.8-2.1v-.7zm13.4.1h2v.2c0 1.5-.5 2.6-1.4 3.5-1 .8-2.3 1.3-3.8 1.3-1.6 0-2.9-.5-3.9-1.4-1-1-1.5-2.3-1.5-3.9v-3.9c0-1.7.5-3 1.5-4s2.3-1.5 3.9-1.5 2.8.5 3.8 1.5 1.4 2.3 1.4 4v2.1h-8.5v2c0 1 .3 1.7.9 2.4.6.6 1.4 1 2.5 1 1 0 1.9-.3 2.4-.8.6-.6.8-1.3.8-2.1l-.1-.4zm-6.5-4.4v.7h6.6v-.7c0-1-.3-1.9-.8-2.6-.6-.6-1.4-1-2.4-1s-1.8.3-2.5 1c-.6.7-.9 1.5-.9 2.6z"/></g></g></g></svg>