<?xml version="1.0" encoding="UTF-8"?>
<svg width="30px" height="30px" viewBox="0 0 30 30" version="1.1" xmlns="http://www.w3.org/2000/svg" xmlns:xlink="http://www.w3.org/1999/xlink">
    <!-- Generator: Sketch 55.2 (78181) - https://sketchapp.com -->
    <title>2 Atom/Icon/Linkedin/a</title>
    <desc>Created with Sketch.</desc>
    <g id="Molecule---tiles" stroke="none" stroke-width="1" fill="none" fill-rule="evenodd">
        <g id="3-Molecule/Tile/d" transform="translate(-340.000000, -258.000000)" fill="#0A47ED">
            <g id="2-Atom/Icon/Linkedin/a" transform="translate(340.000000, 258.000000)">
                <path d="M25.5683333,25.5683333 L21.0583333,25.5683333 L21.0583333,17.7433333 C21.0583333,15.4333333 20.0766667,14.7216667 18.81,14.7216667 C17.4733333,14.7216667 16.16,15.7283333 16.16,17.8 L16.16,25.5683333 L11.65,25.5683333 L11.65,11.24 L15.9866667,11.24 L15.9866667,13.225 L16.045,13.225 C16.4816667,12.3433333 18.005,10.8383333 20.3316667,10.8383333 C22.8483333,10.8383333 25.5683333,12.33 25.5683333,16.7066667 L25.5683333,25.5683333 Z M6.685,9.245 C5.25,9.245 4.085,8.15 4.085,6.655 C4.085,5.15833333 5.25,4.065 6.685,4.065 C8.12166667,4.065 9.285,5.15833333 9.285,6.655 C9.285,8.15 8.12166667,9.245 6.685,9.245 L6.685,9.245 Z M4.43,25.5566667 L8.94,25.5566667 L8.94,11.2283333 L4.43,11.2283333 L4.43,25.5566667 Z M27.785,5.32907052e-15 L2.21333333,5.32907052e-15 C0.99,5.32907052e-15 0,0.991666667 0,2.215 L0,27.785 C0,29.0083333 0.99,30 2.21333333,30 L27.785,30 C29.0083333,30 30,29.0083333 30,27.785 L30,2.215 C30,0.991666667 29.0083333,5.32907052e-15 27.785,5.32907052e-15 L27.785,5.32907052e-15 Z" id="2-Atom/Icon/Linkedin"></path>
                <rect id="Rectangle" x="0" y="0" width="3" height="4"></rect>
                <rect id="Rectangle-Copy" x="27" y="0" width="3" height="4"></rect>
                <rect id="Rectangle-Copy-2" x="27" y="26" width="3" height="4"></rect>
                <rect id="Rectangle-Copy-3" x="0" y="26" width="3" height="4"></rect>
            </g>
        </g>
    </g>
</svg>