<?xml version="1.0" encoding="utf-8"?>
<!-- Generator: Adobe Illustrator 23.0.1, SVG Export Plug-In . SVG Version: 6.00 Build 0)  -->
<svg version="1.1" id="Layer_1" xmlns="http://www.w3.org/2000/svg" xmlns:xlink="http://www.w3.org/1999/xlink" x="0px" y="0px"
	 viewBox="0 0 216.6 136.5" style="enable-background:new 0 0 216.6 136.5;" xml:space="preserve">
<style type="text/css">
	.st0{fill:none;}
	.st1{fill:#00D1DA;}
	.st2{fill:#0A47ED;}
</style>
<title>Group</title>
<desc>Created with Sketch.</desc>
<g>
	<g transform="translate(-639.000000, -39.000000)">
		<g id="wunderman_thompson_commerce_logo" transform="translate(611.709852, 23.000000)">
			<g id="Group" transform="translate(0.290148, 0.000000)">
				<g>
					<polygon id="Path" class="st0" points="27,16 243.6,16 243.6,152.5 27,152.5 					"/>
					<polygon class="st1" points="71.5,39.1 65.3,39.1 65.3,32.8 61.1,32.8 61.1,39.1 54.8,39.1 54.8,43.3 61.1,43.3 61.1,49.5 
						65.3,49.5 65.3,43.3 71.5,43.3 					"/>
					<path id="Shape" class="st2" d="M180,55.4c0-3.2-2.6-5.8-5.8-5.8h-6.3v19.1h2.1v-7.5h4.8l3.4,7.6h2.3l-3.8-8.1
						C178.6,59.6,180,57.6,180,55.4z M174.1,59h-4.3v-7.4h4.3c2,0,3.7,1.6,3.7,3.7S176.1,59,174.1,59z M104.5,62.9
						c0,2.8-1.9,4-4.3,4c-2.3,0-4.3-1.2-4.3-4V49.5h-2.1v13.3c0,3.7,2.6,6.1,6.4,6.1c3.7,0,6.4-2.3,6.4-6.1V49.5h-2.1V62.9z
						 M84.6,64.3l-2.8-14.7h-2.6l-2.8,14.7l-2.6-14.7h-2.1l3.7,19.1h2.3l3-14.8l3,14.8h2.3l3.7-19.1h-2.1L84.6,64.3z M157.2,77.1
						h-6.3v19.1h2.1v-7.5h4.3c3.2,0,5.8-2.6,5.8-5.8C163,79.7,160.4,77.1,157.2,77.1z M157.2,86.6H153v-7.4h4.3c2,0,3.7,1.6,3.7,3.7
						S159.2,86.6,157.2,86.6z M211,49.5l-6.1,19.1h2.3l1.4-4.4h7.2l1.4,4.4h2.3l-6.1-19.1H211z M209.2,62.1l3-9.2l3,9.2H209.2z
						 M192.7,76.8c-3.4,0-6.2,2.8-6.2,6.2v7.2c0,3.4,2.8,6.2,6.2,6.2c3.4,0,6.2-2.8,6.2-6.2V83C198.9,79.6,196.1,76.8,192.7,76.8z
						 M196.7,90.3c0,2.3-1.8,4.1-4.1,4.1c-2.3,0-4.1-1.8-4.1-4.1V83c0-2.3,1.8-4.1,4.1-4.1c2.3,0,4.1,1.8,4.1,4.1V90.3z M119.1,76.8
						c-3.4,0-6.2,2.8-6.2,6.2v7.2c0,3.4,2.8,6.2,6.2,6.2c3.4,0,6.2-2.8,6.2-6.2V83C125.3,79.6,122.5,76.8,119.1,76.8z M123.2,90.3
						c0,2.3-1.8,4.1-4.1,4.1c-2.3,0-4.1-1.8-4.1-4.1V83c0-2.3,1.8-4.1,4.1-4.1c2.3,0,4.1,1.8,4.1,4.1V90.3z M123.4,64.3l-8.7-14.7
						h-2v19.1h2.1V53.9l8.7,14.7h2V49.5h-2.1V64.3z M235.8,49.5v14.7l-8.7-14.7h-2v19.1h2.1V53.9l8.7,14.7h2V49.5H235.8z
						 M216.4,91.8l-8.7-14.7h-2v19.1h2.1V81.5l8.7,14.7h2V77.1h-2.1V91.8z M144.1,62.5v-6.7c0-3.4-2.8-6.2-6.2-6.2h-6.3v19.1h6.3
						C141.3,68.7,144.1,65.9,144.1,62.5z M133.7,51.7h4.3c2.3,0,4.1,1.8,4.1,4.1v6.7c0,2.3-1.8,4.1-4.1,4.1h-4.3V51.7z M162.2,66.5
						h-9.6v-6.4h8.5V58h-8.5v-6.3h9.6v-2.1h-11.7v19.1h11.7V66.5z M192.7,59l-4.8-9.4h-2.2v19.1h2.1V53.9l4.2,8.4h1.4l4.2-8.4v14.7
						h2.1V49.5h-2.2L192.7,59z M72.6,79.2h6.8v17h2.1v-17h6.8v-2.1H72.6V79.2z M104.5,85.6h-8.3v-8.5H94v19.1h2.1v-8.5h8.3v8.5h2.1
						V77.1h-2.1V85.6z M175.5,85.6l-3-1.2c-2.1-0.8-2.3-1.8-2.3-2.6c0-0.8,0.3-1.4,0.8-1.9c0.7-0.6,1.7-0.9,3-0.9s2.3,0.3,3,0.9
						c0.6,0.6,1,1.4,1,2.3v0.3h2.1v-0.3c0-3.3-2.5-5.4-6-5.4c-3.6,0-5.9,2-5.9,4.9c0,2.6,1.8,3.9,4,4.8l2.7,1.1
						c2.6,1,3.4,1.7,3.4,3.4c0,1-0.3,1.8-1,2.5c-0.8,0.6-1.9,1-3.2,1s-2.5-0.3-3.3-1c-0.6-0.6-1-1.3-1-2.3v-0.5h-2.1v0.5
						c0,3.3,2.6,5.4,6.4,5.4s6.4-2.2,6.4-5.6S177.8,86.5,175.5,85.6z M137.8,86.5l-4.8-9.4h-2.2v19.1h2.1V81.5l4.2,8.4h1.4l4.2-8.4
						v14.7h2.1V77.1h-2.3L137.8,86.5z"/>
					<path class="st1" d="M82.8,129.3H85v0.6c0,1.7-0.6,3.2-1.7,4.2c-1.2,1-2.6,1.6-4.5,1.6s-3.4-0.6-4.5-1.7
						c-1.2-1.1-1.7-2.6-1.7-4.5v-7.4c0-1.9,0.6-3.4,1.7-4.5c1.2-1.1,2.6-1.6,4.5-1.6c1.8,0,3.3,0.5,4.5,1.6c1.2,1,1.7,2.5,1.7,4.2
						v0.5h-2.1v-0.5c0-1.1-0.4-2-1.1-2.7s-1.7-1-3-1c-1.2,0-2.3,0.4-3,1.2c-0.7,0.8-1.1,1.7-1.1,2.9v7.7c0,1.2,0.4,2.1,1.1,2.9
						c0.7,0.8,1.7,1.2,3,1.2c1.2,0,2.3-0.3,3-1c0.7-0.7,1.1-1.6,1.1-2.7L82.8,129.3L82.8,129.3z M98.8,126.5v3.7c0,1.7-0.5,3-1.5,4
						c-1,1-2.3,1.5-3.9,1.5s-2.9-0.5-3.9-1.5c-1-1-1.5-2.3-1.5-4v-3.7c0-1.7,0.5-3,1.5-4c1-1,2.3-1.5,3.9-1.5c1.6,0,2.9,0.5,3.9,1.5
						C98.3,123.5,98.8,124.8,98.8,126.5z M90.1,126.4v4.1c0,1,0.3,1.9,0.8,2.5c0.6,0.6,1.4,1,2.4,1s1.8-0.3,2.4-1
						c0.6-0.6,0.8-1.5,0.8-2.5v-4.1c0-1-0.3-1.9-0.8-2.5c-0.6-0.6-1.4-1-2.4-1s-1.8,0.3-2.4,1C90.4,124.5,90.1,125.3,90.1,126.4z
						 M104.1,135.5H102v-14.2h1.6l0.3,1.7c0.9-1.3,2.2-2,3.8-2c2.1,0,3.5,0.8,4.3,2.6c0.8-1.7,2.2-2.6,4.1-2.6
						c1.5,0,2.7,0.5,3.6,1.4c0.8,0.9,1.3,2.2,1.3,3.8v9.3h-2.1v-9.3c0-1-0.3-1.7-0.8-2.3c-0.5-0.6-1.3-0.9-2.3-0.9s-1.7,0.3-2.3,1
						c-0.6,0.6-0.9,1.4-0.9,2.4v9.2h-2.1v-9.3c0-1-0.3-1.7-0.8-2.3c-0.5-0.6-1.3-0.9-2.3-0.9s-1.7,0.3-2.3,1
						c-0.6,0.6-0.9,1.5-0.9,2.5V135.5z M126.6,135.5h-2.1v-14.2h1.6l0.3,1.7c0.9-1.3,2.2-2,3.8-2c2.1,0,3.5,0.8,4.3,2.6
						c0.8-1.7,2.2-2.6,4.1-2.6c1.5,0,2.7,0.5,3.6,1.4c0.8,0.9,1.3,2.2,1.3,3.8v9.3h-2.1v-9.3c0-1-0.3-1.7-0.8-2.3
						c-0.5-0.6-1.3-0.9-2.3-0.9s-1.7,0.3-2.3,1c-0.6,0.6-0.9,1.4-0.9,2.4v9.2h-2.1v-9.3c0-1-0.3-1.7-0.8-2.3
						c-0.5-0.6-1.3-0.9-2.3-0.9s-1.7,0.3-2.3,1c-0.6,0.6-0.9,1.5-0.9,2.5V135.5z M155.2,130.7h2v0.2c0,1.5-0.5,2.6-1.4,3.5
						c-1,0.8-2.3,1.3-3.8,1.3c-1.6,0-2.9-0.5-3.9-1.4c-1-1-1.5-2.3-1.5-3.9v-3.9c0-1.7,0.5-3,1.5-4c1-1,2.3-1.5,3.9-1.5
						c1.6,0,2.8,0.5,3.8,1.5c1,1,1.4,2.3,1.4,4v2.1h-8.5v2c0,1,0.3,1.7,0.9,2.4c0.6,0.6,1.4,1,2.5,1c1,0,1.9-0.3,2.4-0.8
						c0.6-0.6,0.8-1.3,0.8-2.1L155.2,130.7L155.2,130.7z M148.6,126.3v0.7h6.5v-0.7c0-1-0.3-1.9-0.8-2.6c-0.6-0.6-1.4-1-2.4-1
						c-1,0-1.8,0.3-2.5,1C149,124.4,148.6,125.2,148.6,126.3z M162.5,135.5h-2.1v-14.2h1.6l0.3,1.8c0.8-1.4,2.1-2.1,3.7-2.1
						c0.1,0,0.4,0,0.7,0.1v2c-0.5-0.1-0.8-0.1-0.8-0.1c-1,0-1.9,0.3-2.5,1c-0.6,0.6-1,1.5-1,2.6L162.5,135.5L162.5,135.5z
						 M177.5,130.6h2.1v0.3c0,1.6-0.5,2.7-1.4,3.6c-1,0.9-2.3,1.3-3.9,1.3c-1.6,0-2.9-0.5-3.9-1.5c-1-1-1.5-2.3-1.5-4v-3.7
						c0-1.7,0.5-3,1.5-4c1-1,2.3-1.5,3.9-1.5c1.6,0,2.8,0.5,3.9,1.4c1,0.9,1.5,2.1,1.5,3.6v0.2h-2.1v-0.3c0-0.8-0.3-1.5-0.8-2.1
						c-0.6-0.5-1.4-0.8-2.4-0.8c-1,0-1.8,0.3-2.4,1c-0.6,0.6-0.8,1.5-0.8,2.5v4.1c0,1,0.3,1.9,0.8,2.5c0.6,0.6,1.4,1,2.4,1
						c1,0,1.9-0.3,2.4-0.8c0.6-0.5,0.8-1.2,0.8-2.1V130.6z M190.9,130.7h2v0.2c0,1.5-0.5,2.6-1.4,3.5c-1,0.8-2.3,1.3-3.8,1.3
						c-1.6,0-2.9-0.5-3.9-1.4c-1-1-1.5-2.3-1.5-3.9v-3.9c0-1.7,0.5-3,1.5-4c1-1,2.3-1.5,3.9-1.5c1.6,0,2.8,0.5,3.8,1.5
						c1,1,1.4,2.3,1.4,4v2.1h-8.5v2c0,1,0.3,1.7,0.9,2.4c0.6,0.6,1.4,1,2.5,1c1,0,1.9-0.3,2.4-0.8c0.6-0.6,0.8-1.3,0.8-2.1
						L190.9,130.7L190.9,130.7z M184.4,126.3v0.7h6.6v-0.7c0-1-0.3-1.9-0.8-2.6c-0.6-0.6-1.4-1-2.4-1c-1,0-1.8,0.3-2.5,1
						C184.7,124.4,184.4,125.2,184.4,126.3z"/>
				</g>
			</g>
		</g>
	</g>
</g>
</svg>
